<?xml version="1.0" standalone="no"?>
<!DOCTYPE svg PUBLIC "-//W3C//DTD SVG 20010904//EN"
 "http://www.w3.org/TR/2001/REC-SVG-20010904/DTD/svg10.dtd">
<svg version="1.0" xmlns="http://www.w3.org/2000/svg"
 width="1305.000000pt" height="1043.000000pt" viewBox="0 0 1305.000000 1043.000000"
 preserveAspectRatio="xMidYMid meet">

<g transform="translate(0.000000,1043.000000) scale(0.100000,-0.100000)"
fill="#000000" stroke="none">
<path d="M1388 7034 l-28 -15 0 -218 c0 -166 3 -220 12 -223 13 -5 38 14 38
28 0 5 -5 3 -12 -4 -7 -7 -16 -12 -20 -12 -4 0 -8 96 -8 214 l0 214 38 15 c20
9 30 16 22 16 -8 0 -27 -7 -42 -15z"/>
<path d="M1478 7033 c7 -3 16 -2 19 1 4 3 -2 6 -13 5 -11 0 -14 -3 -6 -6z"/>
<path d="M1538 7023 c7 -3 16 -2 19 1 4 3 -2 6 -13 5 -11 0 -14 -3 -6 -6z"/>
<path d="M1598 7013 c7 -3 16 -2 19 1 4 3 -2 6 -13 5 -11 0 -14 -3 -6 -6z"/>
<path d="M11608 7013 c7 -3 16 -2 19 1 4 3 -2 6 -13 5 -11 0 -14 -3 -6 -6z"/>
<path d="M11648 6812 l-3 -207 24 -12 c29 -16 41 -16 41 -1 0 6 -3 8 -6 5 -4
-3 -15 -2 -25 4 -18 9 -19 25 -19 204 0 107 4 195 8 195 4 0 13 -5 20 -12 7
-7 12 -8 12 -2 0 6 -11 16 -25 22 l-25 11 -2 -207z"/>
<path d="M1658 7003 c7 -3 16 -2 19 1 4 3 -2 6 -13 5 -11 0 -14 -3 -6 -6z"/>
<path d="M11548 7003 c7 -3 16 -2 19 1 4 3 -2 6 -13 5 -11 0 -14 -3 -6 -6z"/>
<path d="M1718 6973 c5 -21 7 -23 10 -9 2 10 0 22 -6 28 -6 6 -7 0 -4 -19z"/>
<path d="M11488 6993 c7 -3 16 -2 19 1 4 3 -2 6 -13 5 -11 0 -14 -3 -6 -6z"/>
<path d="M11428 6983 c7 -3 16 -2 19 1 4 3 -2 6 -13 5 -11 0 -14 -3 -6 -6z"/>
<path d="M1834 6968 c-4 -7 -3 -8 4 -4 9 5 12 -31 12 -138 l0 -146 -50 0 -50
0 2 -867 3 -868 803 -3 802 -2 0 -21 c0 -11 -56 -473 -125 -1026 -69 -553
-125 -1015 -125 -1027 1 -19 2 -19 13 -5 7 9 280 481 607 1048 l595 1031 3505
2 3505 3 0 865 0 865 -42 3 -42 3 -4 47 c-2 26 -2 2 0 -53 3 -60 10 -103 16
-107 8 -5 13 7 15 40 5 78 22 74 22 -5 l0 -71 -34 -6 c-33 -6 -35 -10 -38 -49
-3 -41 -4 -42 -45 -51 -40 -8 -42 -10 -45 -49 -3 -39 -5 -42 -42 -51 -31 -7
-46 -5 -73 9 -30 17 -33 22 -33 66 l0 47 40 7 40 7 0 64 c0 51 -3 64 -15 64
-9 0 -29 7 -46 15 -30 16 -30 16 -26 88 3 40 2 53 0 30 l-4 -43 -4419 0 -4419
0 -4 128 c-3 110 -3 106 -3 -30 1 -146 0 -158 -19 -172 -11 -9 -32 -16 -47
-16 l-28 0 0 -75 0 -75 29 0 c53 0 61 -8 61 -61 0 -44 -3 -50 -31 -64 -18 -10
-48 -15 -77 -13 l-47 3 -3 46 -3 46 -47 9 -47 9 -3 46 c-3 44 -5 46 -40 55
l-37 9 -3 73 c-2 45 1 72 8 72 6 0 10 -25 10 -61 0 -44 3 -60 13 -57 17 6 28
97 33 276 5 143 0 175 -22 140z m1774 -872 c2 -41 -1 -62 -10 -67 -7 -5 -77
-9 -156 -9 l-142 0 -11 -27 c-7 -18 -7 -35 0 -49 9 -21 18 -22 138 -26 195 -6
228 -33 224 -187 -2 -88 -16 -135 -53 -168 -18 -16 -39 -18 -217 -16 -108 1
-211 4 -228 8 l-33 6 0 66 0 66 98 -9 c53 -4 133 -8 177 -9 l80 0 3 53 3 52
-131 0 c-161 0 -193 11 -222 78 -27 61 -23 197 8 239 42 58 69 63 279 61 l190
-3 3 -59z m385 -58 l-3 -118 34 0 c34 0 36 2 97 120 l63 120 87 0 c48 0 90 -3
92 -8 3 -4 -30 -70 -74 -147 -43 -77 -79 -148 -79 -157 0 -10 34 -78 75 -152
41 -74 75 -137 75 -140 0 -4 -41 -5 -91 -4 l-91 3 -61 118 c-59 113 -62 117
-94 117 l-33 0 0 -120 0 -120 -85 0 -85 0 0 305 0 306 88 -3 87 -3 -2 -117z
m688 -110 c-3 -173 -1 -231 9 -243 17 -20 172 -22 189 -2 7 9 12 94 13 243 l3
229 85 0 85 0 -3 -250 c-2 -137 -8 -264 -13 -281 -5 -17 -21 -42 -35 -55 -25
-23 -31 -24 -212 -27 -297 -4 -292 -11 -292 361 l0 258 88 -3 87 -3 -4 -227z
m1057 165 l-3 -68 -152 -3 c-140 -2 -153 -4 -163 -22 -6 -12 -9 -78 -8 -166 3
-121 6 -149 19 -157 9 -6 49 -7 103 -2 l87 7 -3 51 -3 52 -53 3 -53 3 3 52 3
52 135 0 135 0 3 -166 2 -167 -27 -6 c-16 -3 -114 -9 -220 -13 -214 -7 -238
-2 -276 51 -21 30 -22 40 -22 253 0 208 1 223 21 250 41 57 70 63 282 63 l193
0 -3 -67z m710 0 l-3 -68 -151 -3 c-113 -2 -155 -6 -163 -16 -8 -9 -11 -65 -9
-172 3 -184 -7 -170 125 -159 l84 7 -3 51 -3 52 -53 3 -53 3 3 52 3 52 135 0
135 0 3 -166 2 -167 -27 -6 c-16 -3 -114 -9 -220 -13 -214 -7 -238 -2 -276 51
-21 30 -22 40 -22 251 0 245 2 255 68 295 29 18 51 20 230 20 l198 0 -3 -67z
m690 0 l-3 -68 -155 -5 -155 -5 0 -45 0 -45 130 -5 c187 -7 224 -32 232 -158
6 -83 -9 -143 -47 -185 l-29 -32 -192 2 c-105 1 -207 4 -225 8 l-34 6 0 66 0
66 83 -7 c285 -23 277 -24 277 50 l0 44 -132 0 c-154 0 -192 12 -220 70 -26
51 -25 180 2 235 33 68 55 74 278 74 l193 1 -3 -67z m443 -10 c60 -112 140
-253 143 -253 1 0 2 73 1 163 l0 162 88 3 87 3 -2 -303 -3 -303 -91 -3 -90 -3
-30 53 c-16 29 -31 57 -33 63 -2 5 -29 55 -60 110 l-56 100 -3 -163 -2 -163
-88 3 -87 3 -3 280 c-1 154 0 290 3 303 5 21 10 22 94 22 l90 0 42 -77z m889
15 c13 -35 63 -169 111 -299 49 -130 89 -239 89 -242 0 -4 -40 -7 -89 -7 -84
0 -90 1 -96 23 -4 12 -14 37 -22 55 l-15 32 -98 0 -97 0 -19 -52 -19 -53 -94
-3 c-86 -3 -93 -1 -89 15 8 29 209 556 219 576 8 14 24 17 103 17 l94 0 22
-62z m798 -5 l-3 -68 -155 -5 c-154 -5 -154 -5 -161 -30 -13 -47 -10 -285 4
-304 12 -16 25 -17 157 -8 80 5 148 7 153 5 4 -2 7 -33 7 -67 l0 -63 -67 -6
c-38 -4 -129 -7 -203 -7 -118 0 -139 3 -168 20 -57 35 -63 66 -60 300 3 193 5
211 24 237 41 57 70 63 282 63 l193 0 -3 -67z m332 -53 l0 -120 33 0 c29 0 35
6 57 47 14 27 43 81 64 120 l40 73 86 0 c48 0 89 -3 92 -6 4 -3 -32 -73 -78
-155 l-85 -150 81 -145 c44 -79 80 -147 80 -150 0 -2 -41 -3 -92 -2 l-92 3
-49 95 c-68 134 -73 140 -107 140 l-30 0 0 -120 0 -121 -87 3 -88 3 -3 290
c-1 159 0 295 3 302 3 9 30 13 90 13 l85 0 0 -120z"/>
<path d="M8331 5885 c-41 -108 -41 -105 24 -105 41 0 56 3 53 13 -3 6 -15 42
-27 80 -13 37 -24 67 -26 67 -2 0 -13 -25 -24 -55z"/>
<path d="M1888 6973 c7 -3 16 -2 19 1 4 3 -2 6 -13 5 -11 0 -14 -3 -6 -6z"/>
<path d="M11364 6966 c-3 -7 -4 -33 -1 -57 l4 -44 1 52 c1 30 7 53 15 56 9 4
9 6 -1 6 -7 1 -15 -5 -18 -13z"/>
<path d="M1948 6963 c7 -3 16 -2 19 1 4 3 -2 6 -13 5 -11 0 -14 -3 -6 -6z"/>
<path d="M2018 6953 c7 -3 16 -2 19 1 4 3 -2 6 -13 5 -11 0 -14 -3 -6 -6z"/>
<path d="M11198 6953 c7 -3 16 -2 19 1 4 3 -2 6 -13 5 -11 0 -14 -3 -6 -6z"/>
<path d="M11240 6950 c0 -6 7 -10 15 -10 8 0 15 2 15 4 0 2 -7 6 -15 10 -8 3
-15 1 -15 -4z"/>
<path d="M11138 6943 c7 -3 16 -2 19 1 4 3 -2 6 -13 5 -11 0 -14 -3 -6 -6z"/>
<path d="M11078 6933 c7 -3 16 -2 19 1 4 3 -2 6 -13 5 -11 0 -14 -3 -6 -6z"/>
<path d="M11018 6923 c7 -3 16 -2 19 1 4 3 -2 6 -13 5 -11 0 -14 -3 -6 -6z"/>
<path d="M1710 6743 c-3 -45 -1 -78 3 -74 4 4 7 41 5 82 l-3 74 -5 -82z"/>
<path d="M11371 6694 c-1 -27 38 -54 79 -54 l30 0 0 -69 c0 -46 -4 -71 -12
-74 -10 -4 -10 -6 0 -6 7 -1 12 -17 12 -45 0 -32 5 -46 18 -52 13 -6 10 -9
-18 -15 -33 -7 -33 -7 10 -6 l45 2 5 45 c5 44 6 45 45 50 40 5 40 5 43 52 3
39 7 47 25 51 16 3 13 5 -10 6 -17 0 -35 6 -38 11 -4 6 -11 7 -17 4 -7 -5 -3
-11 11 -16 19 -7 22 -14 19 -50 -3 -42 -4 -43 -42 -46 -21 -2 -46 0 -55 4 -9
4 -20 6 -26 6 -6 -1 -9 34 -7 93 l3 95 -28 -1 c-23 -2 -24 -2 -5 -6 35 -7 26
-23 -13 -23 -19 0 -35 5 -35 10 0 6 -6 10 -14 10 -8 0 -17 10 -19 23 -4 21 -4
21 -6 1z m157 -262 c2 -23 -1 -42 -5 -42 -19 0 -33 25 -33 58 0 26 4 33 18 30
12 -2 18 -15 20 -46z"/>
<path d="M1603 6673 c9 -2 23 -2 30 0 6 3 -1 5 -18 5 -16 0 -22 -2 -12 -5z"/>
<path d="M1675 6661 c-3 -6 -24 -11 -46 -11 -21 0 -39 -3 -39 -8 0 -4 19 -6
43 -4 41 4 66 16 55 27 -3 4 -9 2 -13 -4z"/>
<path d="M2040 6620 c0 -5 12 -10 28 -9 24 0 25 1 7 9 -27 12 -35 12 -35 0z"/>
<path d="M11030 6620 c0 -5 6 -10 14 -10 8 0 18 5 21 10 3 6 -3 10 -14 10 -12
0 -21 -4 -21 -10z"/>
<path d="M1450 6590 l25 -7 -30 -7 c-47 -12 -52 -14 -27 -15 19 -1 22 -6 22
-45 0 -31 5 -46 16 -50 24 -9 31 -7 12 5 -13 7 -18 23 -18 54 0 39 3 45 21 45
18 0 19 2 9 15 -7 8 -22 15 -34 14 -19 -1 -18 -2 4 -9z"/>
<path d="M1591 6522 c-1 -41 -2 -42 -28 -36 -21 4 -24 3 -13 -5 16 -11 8 -16
-40 -24 -24 -4 -24 -4 3 -6 26 -1 27 -3 27 -51 l0 -50 44 0 c51 0 76 8 76 23
0 7 -4 7 -12 -1 -7 -7 -28 -12 -47 -12 -34 1 -35 2 -17 15 23 17 14 20 -15 5
-17 -10 -19 -7 -19 35 0 42 6 50 32 46 11 -1 20 43 15 75 -3 22 -4 18 -6 -14z"/>
<path d="M11210 6550 c0 -5 9 -10 20 -10 11 0 20 5 20 10 0 6 -9 10 -20 10
-11 0 -20 -4 -20 -10z"/>
<path d="M1845 6540 c-4 -6 5 -10 19 -10 14 0 26 5 26 10 0 6 -9 10 -19 10
-11 0 -23 -4 -26 -10z"/>
<path d="M11182 6505 c2 -21 9 -40 16 -43 18 -6 15 53 -4 69 -14 11 -15 8 -12
-26z"/>
<path d="M1902 6518 c-7 -7 -12 -27 -12 -45 0 -31 2 -33 20 -23 14 8 20 21 20
45 0 37 -8 43 -28 23z"/>
<path d="M11407 6483 c-4 -3 -7 -23 -7 -44 0 -30 5 -41 23 -49 21 -10 21 -10
3 4 -14 11 -17 25 -14 55 2 23 3 41 2 41 0 0 -4 -3 -7 -7z"/>
<path d="M1638 6473 c7 -3 16 -2 19 1 4 3 -2 6 -13 5 -11 0 -14 -3 -6 -6z"/>
<path d="M11135 6450 c-17 -7 -14 -9 13 -9 20 -1 31 3 27 9 -7 12 -13 12 -40
0z"/>
<path d="M1930 6430 c0 -5 11 -10 24 -10 14 0 28 5 31 10 4 6 -7 10 -24 10
-17 0 -31 -4 -31 -10z"/>
<path d="M11082 6398 c2 -22 9 -34 21 -36 15 -3 18 2 15 30 -2 22 -9 34 -21
36 -15 3 -18 -2 -15 -30z"/>
<path d="M2002 6408 c-7 -7 -12 -27 -12 -45 0 -31 2 -33 20 -23 13 7 20 21 20
40 0 33 -12 44 -28 28z"/>
<path d="M11050 6350 c0 -5 7 -10 16 -10 8 0 12 5 9 10 -3 6 -10 10 -16 10 -5
0 -9 -4 -9 -10z"/>
<path d="M2043 6323 c9 -2 23 -2 30 0 6 3 -1 5 -18 5 -16 0 -22 -2 -12 -5z"/>
<path d="M4434 4585 c0 -93 2 -133 3 -88 2 45 2 122 0 170 -1 48 -3 12 -3 -82z"/>
<path d="M6383 4715 c0 -22 2 -30 4 -17 2 12 2 30 0 40 -3 9 -5 -1 -4 -23z"/>
<path d="M7383 4715 c0 -22 2 -30 4 -17 2 12 2 30 0 40 -3 9 -5 -1 -4 -23z"/>
<path d="M8444 4585 c0 -93 2 -133 3 -88 2 45 2 122 0 170 -1 48 -3 12 -3 -82z"/>
<path d="M9137 4715 c-24 -50 -20 -58 4 -12 11 22 19 41 17 43 -3 2 -12 -12
-21 -31z"/>
<path d="M10774 4585 c0 -93 2 -133 3 -88 2 45 2 122 0 170 -1 48 -3 12 -3
-82z"/>
<path d="M8920 4731 c0 -6 4 -13 10 -16 6 -3 7 1 4 9 -7 18 -14 21 -14 7z"/>
<path d="M9222 4695 c-12 -25 -20 -45 -17 -45 7 0 47 81 43 86 -3 2 -14 -17
-26 -41z"/>
<path d="M9021 4725 c0 -5 8 -26 19 -45 11 -19 19 -30 19 -25 0 6 -8 26 -19
45 -11 19 -19 31 -19 25z"/>
<path d="M4523 4630 c0 -30 2 -43 4 -27 2 15 2 39 0 55 -2 15 -4 2 -4 -28z"/>
<path d="M6693 4635 c0 -27 2 -38 4 -22 2 15 2 37 0 50 -2 12 -4 0 -4 -28z"/>
<path d="M7212 4650 c0 -19 2 -27 5 -17 2 9 2 25 0 35 -3 9 -5 1 -5 -18z"/>
<path d="M7694 4585 c0 -55 1 -76 3 -47 2 29 2 74 0 100 -2 26 -3 2 -3 -53z"/>
<path d="M8625 4650 c0 -15 3 -26 8 -23 4 2 7 13 7 23 0 10 -3 21 -7 23 -5 3
-8 -8 -8 -23z"/>
<path d="M9844 4555 c0 -71 1 -99 3 -62 2 37 2 96 0 130 -2 34 -3 4 -3 -68z"/>
<path d="M10863 4635 c0 -27 2 -38 4 -22 2 15 2 37 0 50 -2 12 -4 0 -4 -28z"/>
<path d="M8532 4650 c0 -14 2 -19 5 -12 2 6 2 18 0 25 -3 6 -5 1 -5 -13z"/>
<path d="M10234 4585 c0 -49 1 -71 3 -48 2 23 2 64 0 90 -2 26 -3 8 -3 -42z"/>
<path d="M11073 4635 c0 -22 2 -30 4 -17 2 12 2 30 0 40 -3 9 -5 -1 -4 -23z"/>
<path d="M4732 4635 c0 -16 2 -22 5 -12 2 9 2 23 0 30 -3 6 -5 -1 -5 -18z"/>
<path d="M8699 4603 c-13 -16 -12 -17 4 -4 9 7 17 15 17 17 0 8 -8 3 -21 -13z"/>
<path d="M9076 4608 c3 -5 10 -6 15 -3 13 9 11 12 -6 12 -8 0 -12 -4 -9 -9z"/>
<path d="M5586 4573 c-6 -14 -5 -15 5 -6 7 7 10 15 7 18 -3 3 -9 -2 -12 -12z"/>
<path d="M5760 4581 c0 -6 4 -13 10 -16 6 -3 7 1 4 9 -7 18 -14 21 -14 7z"/>
<path d="M7212 4520 c0 -19 2 -27 5 -17 2 9 2 25 0 35 -3 9 -5 1 -5 -18z"/>
<path d="M8532 4520 c0 -14 2 -19 5 -12 2 6 2 18 0 25 -3 6 -5 1 -5 -13z"/>
<path d="M8742 4510 c0 -14 2 -19 5 -12 2 6 2 18 0 25 -3 6 -5 1 -5 -13z"/>
<path d="M6693 4470 c0 -30 2 -43 4 -27 2 15 2 39 0 55 -2 15 -4 2 -4 -28z"/>
<path d="M10863 4470 c0 -30 2 -43 4 -27 2 15 2 39 0 55 -2 15 -4 2 -4 -28z"/>
<path d="M4523 4465 c0 -27 2 -38 4 -22 2 15 2 37 0 50 -2 12 -4 0 -4 -28z"/>
<path d="M6383 4455 c0 -22 2 -30 4 -17 2 12 2 30 0 40 -3 9 -5 -1 -4 -23z"/>
<path d="M7383 4455 c0 -22 2 -30 4 -17 2 12 2 30 0 40 -3 9 -5 -1 -4 -23z"/>
</g>
</svg>
